<?xml version="1.0" standalone="no"?>
<!DOCTYPE svg PUBLIC "-//W3C//DTD SVG 20010904//EN"
 "http://www.w3.org/TR/2001/REC-SVG-20010904/DTD/svg10.dtd">
<svg version="1.0" xmlns="http://www.w3.org/2000/svg"
 width="310.000000pt" height="310.000000pt" viewBox="0 0 310.000000 310.000000"
 preserveAspectRatio="xMidYMid meet">
<metadata>
Created by potrace 1.11, written by Peter Selinger 2001-2013
</metadata>
<g transform="translate(0.000000,310.000000) scale(0.100000,-0.100000)"
fill="#000000" stroke="none">
<path d="M0 1550 l0 -1550 1550 0 1550 0 0 1550 0 1550 -1550 0 -1550 0 0
-1550z m623 303 c2 -5 1 -30 -2 -58 l-6 -50 -140 -5 -140 -5 -7 -50 c-4 -27
-6 -56 -3 -62 3 -9 30 -13 90 -13 l85 0 0 -29 c0 -16 -3 -42 -6 -59 l-6 -31
-92 -3 -91 -3 -9 -46 c-15 -79 -15 -79 134 -79 l130 0 0 -37 c0 -21 -3 -48 -6
-60 l-6 -23 -229 0 -229 0 0 25 c0 13 16 148 35 299 19 152 35 280 35 286 0
12 456 14 463 3z m557 -37 c0 -78 4 -76 -145 -76 -74 0 -136 -3 -138 -7 -3 -5
-8 -34 -12 -65 l-7 -58 92 0 93 0 -7 -37 c-3 -21 -6 -48 -6 -60 0 -22 -3 -23
-89 -23 -50 0 -92 -4 -96 -9 -3 -5 -10 -47 -15 -93 -6 -46 -13 -98 -16 -115
l-5 -33 -89 0 c-49 0 -91 3 -93 8 -3 4 -2 30 3 57 4 28 13 91 19 140 31 264
42 353 47 383 l5 32 229 0 230 0 0 -44z m653 14 c-2 -14 -5 -39 -8 -57 l-6
-32 -92 -3 -92 -3 -6 -55 c-22 -184 -51 -408 -55 -422 -5 -15 -18 -18 -95 -18
-78 0 -89 2 -89 18 0 9 13 118 29 242 16 124 27 228 23 232 -4 4 -45 8 -92 10
-95 3 -90 -2 -75 86 l6 32 277 -2 277 -3 -2 -25z m551 -33 l39 -59 -23 -181
c-12 -100 -25 -186 -28 -192 -3 -5 -28 -36 -55 -67 l-49 -58 -210 0 -209 0 6
58 c4 31 18 143 31 247 13 105 26 213 30 240 3 28 7 56 10 63 3 10 50 12 211
10 l208 -3 39 -58z m621 8 c28 -44 35 -65 35 -105 0 -56 -13 -96 -41 -126 -20
-22 -20 -22 -1 -59 16 -32 17 -45 9 -94 -10 -57 -21 -76 -83 -143 l-35 -38
-204 0 c-112 0 -206 3 -208 8 -3 4 1 54 9 112 15 120 30 233 45 352 5 46 12
98 15 116 l5 32 209 0 209 0 36 -55z m-764 -716 c21 -29 21 -35 11 -126 -10
-83 -15 -100 -38 -124 -27 -28 -31 -29 -124 -29 -95 0 -96 0 -113 30 -16 26
-16 38 -6 121 10 78 16 97 42 125 29 34 30 34 117 34 88 0 89 0 111 -31z m198
-57 c31 -48 58 -79 63 -74 5 5 12 41 15 81 5 64 8 72 29 77 34 9 56 -2 50 -23
-4 -15 -36 -258 -36 -277 0 -3 -17 -6 -39 -6 -37 0 -40 2 -87 80 -27 44 -52
80 -56 80 -7 0 -12 -23 -23 -112 -6 -47 -7 -48 -41 -48 l-35 0 6 58 c4 31 11
81 16 111 5 30 9 69 9 86 0 38 17 57 50 53 19 -2 38 -23 79 -86z m426 53 l0
-30 -66 -3 c-62 -3 -67 -5 -71 -27 -7 -32 -2 -35 44 -35 37 0 39 -2 36 -27 -3
-25 -8 -29 -48 -33 -40 -4 -45 -8 -48 -32 l-3 -28 65 0 66 0 0 -30 0 -30 -115
0 -115 0 0 28 c0 42 29 262 36 273 3 6 51 8 112 7 l107 -3 0 -30z m-995 -184
c0 -16 -3 -43 -6 -60 -6 -29 -9 -31 -52 -31 l-45 0 7 52 c4 28 9 55 12 60 3 4
23 8 45 8 36 0 39 -2 39 -29z"/>
<path d="M2095 1718 c-6 -30 -38 -295 -39 -328 -1 -23 3 -25 48 -28 71 -5 93
4 120 46 19 29 27 61 36 154 12 114 12 118 -10 147 -20 29 -25 31 -85 31 -59
0 -65 -2 -70 -22z"/>
<path d="M2719 1713 c-5 -15 -9 -43 -7 -62 l3 -36 59 -3 c53 -3 62 0 87 24 34
33 36 52 9 82 -17 18 -32 22 -81 22 -55 0 -60 -2 -70 -27z"/>
<path d="M2690 1464 c-6 -14 -10 -43 -10 -65 l0 -39 63 0 c57 0 66 3 91 29 20
21 26 35 21 50 -12 40 -34 51 -96 51 -55 0 -60 -2 -69 -26z"/>
<path d="M2062 1038 c-13 -17 -26 -120 -17 -147 5 -18 14 -21 55 -21 41 0 52
4 64 23 19 30 29 127 15 144 -14 17 -103 17 -117 1z"/>
</g>
</svg>
