<svg xmlns="http://www.w3.org/2000/svg" viewBox="0 0 1058 160"><defs><style>.cls-1{fill:#ddf;}</style></defs><title>logo_wide</title><g id="Layer_2" data-name="Layer 2"><g id="EFTDB_new" data-name="EFTDB new"><polygon class="cls-1" points="428 0 404 0 380 0 356 0 332 0 308 0 304 32 328 32 352 32 348 64 344 96 340 128 336 160 360 160 384 160 388 128 392 96 396 64 400 32 424 32 448 32 452 0 428 0"/><polygon class="cls-1" points="88 32 112 32 136 32 140 0 116 0 92 0 68 0 44 0 20 0 16 32 12 64 8 96 4 128 0 160 24 160 48 160 72 160 96 160 120 160 124 128 100 128 76 128 52 128 56 96 80 96 104 96 108 64 84 64 60 64 64 32 88 32"/><polygon class="cls-1" points="260 0 236 0 212 0 188 0 164 0 160 32 156 64 152 96 148 128 144 160 168 160 192 160 196 128 200 96 224 96 248 96 252 64 228 64 204 64 208 32 232 32 256 32 280 32 284 0 260 0"/><path class="cls-1" d="M583,0H475l-4,32-4,32-4,32-4,32-4,32H563l28-32,4-32,4-32,4-32ZM531,128H507l4-32,4-32,4-32h36l10,16-2,16-4,32-2,16-14,16Z"/><path class="cls-1" d="M764,32,744,0H636l-4,32-4,32-4,32-4,32-4,32H724l28-32,4-32L746,80l14-16Zm-60,0h12l10,16L712,64H676l4-32Zm-12,96H668l4-32h36l10,16-14,16Z"/></g><g id="One_right" data-name="One right"><path class="cls-1" d="M890,80H842L828,96l-2,16-2,16-2,16,10,16h48l14-16,2-16,2-16,2-16Zm-26,64H846l-5-8,1-8,2-16,1-8,7-8h24l5,8-1,8-2,16-1,8-7,8Z"/><polygon class="cls-1" points="1032 96 1044 96 1056 96 1058 80 1046 80 1034 80 1022 80 1010 80 998 80 996 96 994 112 992 128 990 144 988 160 1000 160 1012 160 1024 160 1036 160 1048 160 1050 144 1038 144 1026 144 1014 144 1016 128 1028 128 1040 128 1042 112 1030 112 1018 112 1020 96 1032 96"/><polygon class="cls-1" points="974 80 968 80 966 96 964 112 962 128 952 112 942 96 932 80 920 80 914 80 912 96 910 112 908 128 906 144 904 160 910 160 922 160 924 144 926 128 928 112 938 128 948 144 958 160 964 160 976 160 978 144 980 128 982 112 984 96 986 80 974 80"/><polygon class="cls-1" points="788 128 776 128 774 144 772 160 784 160 796 160 798 144 800 128 788 128"/></g></g></svg>